HIERARCHY
ROOT SimulationBone
{
	OFFSET 0.000000 0.000000 0.000000
	CHANNELS 6 Xposition Yposition Zposition Zrotation Yrotation Xrotation 
	JOINT Hips
	{
		OFFSET 0.000000 0.000000 0.000000
		CHANNELS 6 Xposition Yposition Zposition Zrotation Yrotation Xrotation 
		JOINT RightUpLeg
		{
			OFFSET 0.103457 1.857824 10.548504
			CHANNELS 3 Zrotation Yrotation Xrotation
			JOINT RightLeg
			{
				OFFSET 43.500000 -0.000038 -0.000017
				CHANNELS 3 Zrotation Yrotation Xrotation
				JOINT RightFoot
				{
					OFFSET 42.372200 0.000011 0.000019
					CHANNELS 3 Zrotation Yrotation Xrotation
					JOINT RightToe
					{
						OFFSET 17.300011 0.000002 -0.000008
						CHANNELS 3 Zrotation Yrotation Xrotation
						End Site
						{
							OFFSET 0.000000 0.000000 0.000000
						}
					}
				}
			}
		}
		JOINT LeftUpLeg
		{
			OFFSET 0.103457 1.857822 -10.548492
			CHANNELS 3 Zrotation Yrotation Xrotation
			JOINT LeftLeg
			{
				OFFSET 43.500038 -0.000027 0.000036
				CHANNELS 3 Zrotation Yrotation Xrotation
				JOINT LeftFoot
				{
					OFFSET 42.372261 0.000015 0.000010
					CHANNELS 3 Zrotation Yrotation Xrotation
					JOINT LeftToe
					{
						OFFSET 17.299988 -0.000006 0.000008
						CHANNELS 3 Zrotation Yrotation Xrotation
						End Site
						{
							OFFSET 0.000000 0.000000 0.000000
						}
					}
				}
			}
		}
		JOINT Spine
		{
			OFFSET 6.901965 -2.603737 0.000006
			CHANNELS 3 Zrotation Yrotation Xrotation
			JOINT Spine1
			{
				OFFSET 12.588104 -0.000005 0.000007
				CHANNELS 3 Zrotation Yrotation Xrotation
				JOINT Spine2
				{
					OFFSET 12.343202 0.000026 -0.000008
					CHANNELS 3 Zrotation Yrotation Xrotation
					JOINT Neck
					{
						OFFSET 25.832890 -0.000029 -0.000007
						CHANNELS 3 Zrotation Yrotation Xrotation
						JOINT Head
						{
							OFFSET 11.766619 0.000021 0.000012
							CHANNELS 3 Zrotation Yrotation Xrotation
							End Site
							{
								OFFSET 0.000000 0.000000 0.000000
							}
						}
					}
					JOINT RightShoulder
					{
						OFFSET 19.745909 -1.480377 6.000106
						CHANNELS 3 Zrotation Yrotation Xrotation
						JOINT RightArm
						{
							OFFSET 11.284110 -0.000009 -0.000020
							CHANNELS 3 Zrotation Yrotation Xrotation
							JOINT RightForeArm
							{
								OFFSET 33.000053 0.000014 0.000021
								CHANNELS 3 Zrotation Yrotation Xrotation
								JOINT RightHand
								{
									OFFSET 25.200008 0.000006 -0.000004
									CHANNELS 3 Zrotation Yrotation Xrotation
									End Site
									{
										OFFSET 0.000000 0.000000 0.000000
									}
								}
							}
						}
					}
					JOINT LeftShoulder
					{
						OFFSET 19.746101 -1.480381 -6.000081
						CHANNELS 3 Zrotation Yrotation Xrotation
						JOINT LeftArm
						{
							OFFSET 11.284131 -0.000022 0.000003
							CHANNELS 3 Zrotation Yrotation Xrotation
							JOINT LeftForeArm
							{
								OFFSET 33.000095 0.000014 0.000005
								CHANNELS 3 Zrotation Yrotation Xrotation
								JOINT LeftHand
								{
									OFFSET 25.199774 0.000153 0.000423
									CHANNELS 3 Zrotation Yrotation Xrotation
									End Site
									{
										OFFSET 0.000000 0.000000 0.000000
									}
								}
							}
						}
					}
				}
			}
		}
	}
}
MOTION
Frames: 13
Frame Time: 0.016667
270.876894 0.000000 575.541942 180.000000 -77.548585 180.000000 0.878959 81.197006 -0.063316 99.369478 -1.284087 178.639412 169.463837 -20.809090 170.714308 -62.673685 1.922989 8.768913 87.929307 -7.512780 -7.315311 21.454557 0.003121 0.000018 148.612990 20.422305 -166.083822 -51.434848 3.833449 8.227984 76.051608 -5.554079 1.012236 21.454548 -0.003085 0.000001 10.438923 -0.703407 -1.875428 10.886071 -1.227079 -3.808880 10.568678 -1.250169 -3.801425 26.768878 -7.190407 -21.078896 -25.276332 28.466040 -34.828384 149.329953 -80.261860 29.577978 -20.882775 40.295916 1.826961 -79.869287 -14.358280 2.905366 -3.687938 -12.705543 20.859591 -128.798949 78.776800 53.576050 15.055256 -54.301832 -46.008249 -29.561194 17.087325 -1.354844 8.056034 6.289148 5.922038 
269.126714 0.000000 576.710233 180.000000 -75.410826 180.000000 0.865466 81.359338 -0.315362 99.067936 -1.742607 179.557847 170.747322 -21.424784 170.991747 -61.960481 1.439688 8.980611 85.650352 -7.900753 -7.682057 21.454555 0.003105 0.000010 149.375761 19.729227 -165.295561 -51.836221 3.570517 7.256281 79.052620 -4.863977 0.983011 21.454550 -0.003089 0.000002 10.270083 -0.668832 -1.793169 10.546496 -1.171312 -3.639997 10.229024 -1.193404 -3.632879 26.648606 -7.893983 -21.336980 -25.221292 28.860098 -35.202932 154.525924 -80.007314 24.334518 -18.651347 40.410507 3.853412 -79.483590 -14.468754 2.896247 -3.513035 -12.909585 19.460563 -127.974329 78.728575 54.414938 14.797684 -53.832027 -45.797153 -28.638461 16.776490 -1.318264 8.407290 6.390964 5.877412 
267.436779 0.000000 577.851097 180.000000 -73.312749 180.000000 0.809690 81.467941 -0.568663 98.751739 -1.919843 179.998779 171.836836 -22.358595 170.776272 -61.806497 1.270236 9.359546 83.258106 -8.553447 -8.520917 21.454558 0.003106 0.000011 149.774518 18.652591 -164.843829 -52.397208 3.265094 6.323563 81.427417 -4.276752 0.651050 21.454551 -0.003091 0.000001 10.126086 -0.616472 -1.619269 10.255418 -1.086899 -3.286908 9.937820 -1.106867 -3.280304 26.423692 -8.107491 -21.497479 -25.134429 28.867179 -35.337192 159.192979 -79.789581 19.616945 -16.378312 40.457183 5.684064 -79.099375 -14.454352 2.878292 -3.209263 -13.111497 18.434406 -128.795971 78.606975 53.589000 14.139838 -53.156195 -45.407974 -27.827516 16.455003 -1.282298 8.747641 6.457527 6.071670 
265.803669 0.000000 578.965862 180.000000 -71.253815 180.000000 0.730652 81.561165 -0.791545 98.457655 -1.935759 -179.845491 172.731194 -23.394418 170.357055 -62.105545 1.310967 9.729169 80.713645 -9.309131 -9.547504 21.454561 0.003114 0.000016 150.008199 17.389734 -164.563650 -53.023666 2.951226 5.428429 83.328207 -3.761815 0.076243 21.454550 -0.003092 -0.000000 10.010964 -0.552626 -1.411451 10.021761 -0.980838 -2.865508 9.704038 -0.998260 -2.859550 26.112477 -8.010884 -21.570441 -25.080337 28.580143 -35.287816 163.494423 -79.548412 15.264983 -14.072956 40.472668 7.333694 -78.673125 -14.404161 2.856299 -2.928461 -13.413233 17.600955 -130.638760 78.481993 51.726919 13.061454 -52.406525 -44.813461 -27.103267 16.182368 -1.251789 9.058538 6.404009 6.340441 
264.223964 0.000000 580.055856 180.000000 -69.233296 180.000000 0.651514 81.677361 -0.955205 98.211336 -1.910643 -179.781216 173.414309 -24.327485 170.036767 -62.752348 1.456479 9.907777 77.968562 -9.985523 -10.489936 21.454562 0.003118 0.000021 150.272412 16.132108 -164.294600 -53.622670 2.666030 4.567773 84.908157 -3.297483 -0.675200 21.454551 -0.003093 -0.000001 9.928616 -0.483930 -1.227384 9.854056 -0.861494 -2.491534 9.536244 -0.876655 -2.486301 25.735500 -7.783724 -21.566029 -25.126245 28.092094 -35.111881 167.465938 -79.217805 11.245977 -11.739181 40.493025 8.822537 -78.160968 -14.407290 2.833814 -2.818251 -13.919969 16.779661 -132.928946 78.421897 49.406012 11.538185 -51.711139 -43.982015 -26.440208 16.018182 -1.230368 9.320404 6.147648 6.518502 
262.694245 0.000000 581.122405 180.000000 -67.250310 180.000000 0.594079 81.842616 -1.042715 98.023703 -1.944697 -179.659881 173.865670 -24.975495 170.080554 -63.661661 1.610997 9.737960 75.034711 -10.399100 -11.133723 21.454558 0.003112 0.000021 150.711428 15.029492 -163.950820 -54.118350 2.457977 3.742739 86.310041 -2.870325 -1.535942 21.454553 -0.003094 -0.000001 9.880244 -0.416478 -1.108704 9.755094 -0.737934 -2.248573 9.437236 -0.751629 -2.244086 25.307334 -7.592672 -21.497841 -25.303608 27.515101 -34.868107 171.105499 -78.749682 7.563332 -9.437153 40.554541 10.193944 -77.490531 -14.560213 2.814024 -2.948118 -14.716754 15.792363 -135.137930 78.491636 47.159750 9.571345 -51.185470 -42.863130 -25.834661 15.995678 -1.219279 9.517621 5.655939 6.450421 
261.211090 0.000000 582.166838 180.000000 -65.303860 180.000000 0.560843 82.033958 -1.074180 97.871609 -2.057575 -179.516935 174.104705 -25.219800 170.562159 -64.820092 1.737594 9.161545 72.205535 -10.434004 -11.447664 21.454557 0.003106 0.000018 151.290943 14.077891 -163.714908 -54.499987 2.411770 2.977162 87.635062 -2.484412 -2.450133 21.454555 -0.003096 -0.000001 9.856887 -0.353449 -1.033068 9.706728 -0.618937 -2.092139 9.388847 -0.631689 -2.088370 24.816080 -7.553618 -21.397591 -25.501518 27.034217 -34.628857 174.603034 -78.168696 4.021961 -7.466838 40.699409 11.567983 -76.476247 -14.988898 2.801540 -3.087181 -15.796341 14.461700 -136.615951 78.710425 45.647953 7.297234 -50.910774 -41.365288 -25.371459 16.042414 -1.214346 9.648889 5.091772 6.021291 
259.771079 0.000000 583.190481 180.000000 -63.392860 180.000000 0.542795 82.224091 -1.078511 97.727035 -2.237381 -179.422381 174.172717 -24.999254 171.458188 -66.214611 1.819043 8.173986 69.844096 -10.005918 -11.429233 21.454561 0.003110 0.000014 151.942325 13.228683 -163.756083 -54.774033 2.559491 2.288407 88.936797 -2.138875 -3.358493 21.454554 -0.003098 -0.000001 9.847571 -0.297138 -0.965860 9.686768 -0.512334 -1.953198 9.368865 -0.524244 -1.950076 24.274418 -7.715504 -21.291543 -25.625096 26.789369 -34.454220 177.962669 -77.518863 0.615320 -6.069384 40.971624 13.044770 -74.953669 -15.768011 2.791693 -2.969898 -17.102372 12.662962 -136.887958 79.053341 45.354602 4.840470 -50.890304 -39.424028 -25.149903 16.085224 -1.213219 9.696664 4.640626 5.232947 
258.370793 0.000000 584.194664 180.000000 -61.516165 180.000000 0.514636 82.417480 -1.085335 97.576833 -2.431117 -179.402216 174.121179 -24.430795 172.573076 -67.763931 1.874704 6.883837 68.288203 -9.092776 -10.978977 21.454565 0.003117 0.000012 152.610317 12.390393 -163.938802 -54.942785 2.687092 1.647059 90.116408 -1.799313 -4.177295 21.454553 -0.003097 -0.000001 9.843141 -0.249628 -0.887269 9.676829 -0.424137 -1.792300 9.358899 -0.435077 -1.789716 23.822921 -7.909225 -21.172950 -25.789253 26.671659 -34.332078 -179.682975 -76.904770 -1.774062 -5.017496 41.398442 14.563963 -72.964403 -16.736919 2.773761 -2.528637 -18.501896 10.519664 -136.595925 79.331309 45.636991 2.231167 -50.861436 -37.216573 -25.236558 16.153988 -1.219275 9.557339 4.383652 4.509886 
257.006811 0.000000 585.180712 180.000000 -59.672594 180.000000 0.450423 82.622624 -1.115042 97.414954 -2.584899 -179.463514 173.978064 -23.652982 173.683548 -69.397556 1.945985 5.443608 67.776886 -7.760378 -10.053055 21.454560 0.003119 0.000015 153.247481 11.481081 -164.096889 -55.010958 2.586477 1.022111 91.067512 -1.438910 -4.842974 21.454552 -0.003091 0.000000 9.837020 -0.210813 -0.786015 9.663714 -0.355188 -1.586880 9.345749 -0.364900 -1.584719 23.576330 -7.973672 -21.033832 -26.094300 26.541356 -34.226102 -178.906510 -76.446969 -2.559630 -4.041663 41.992298 16.038889 -70.601845 -17.701253 2.743111 -1.768922 -19.876634 8.209378 -136.594473 79.386455 45.635950 -0.431064 -50.595732 -34.992542 -25.687855 16.306340 -1.236909 9.187889 4.365137 4.209453 
255.675713 0.000000 586.149954 180.000000 -57.860953 180.000000 0.347376 82.832397 -1.160740 97.237357 -2.682922 -179.580444 173.682831 -22.711002 174.621832 -71.153898 2.104677 4.072250 68.143649 -6.337309 -8.996256 21.454557 0.003116 0.000017 153.843890 10.515194 -164.238565 -55.015568 2.320601 0.416340 91.807304 -1.072938 -5.397836 21.454553 -0.003087 0.000001 9.831124 -0.172085 -0.670093 9.651141 -0.287614 -1.352188 9.333139 -0.295918 -1.350439 23.413637 -7.996364 -20.878862 -26.370253 26.381391 -34.079822 -179.082997 -76.153094 -2.375008 -3.176725 42.752380 17.429562 -67.955081 -18.565419 2.691750 -0.740256 -21.249234 5.862971 -137.084953 79.360584 45.140006 -2.889291 -50.231522 -32.828050 -26.552697 16.608081 -1.269822 8.894071 4.590162 4.000369 
254.374079 0.000000 587.103718 180.000000 -56.080055 180.000000 0.213344 83.042636 -1.209243 97.038331 -2.725371 -179.723850 173.171643 -21.628872 175.310331 -73.043528 2.387500 2.968816 69.069564 -5.157722 -8.167806 21.454562 0.003110 0.000014 154.406552 9.528569 -164.444958 -54.982049 2.031220 -0.149214 92.378238 -0.729413 -5.900430 21.454553 -0.003090 0.000001 9.827027 -0.126270 -0.550380 9.642224 -0.206184 -1.109347 9.324188 -0.213017 -1.108090 23.203777 -8.067090 -20.708990 -26.457460 26.186258 -33.843621 -179.583451 -75.990238 -1.860499 -2.519269 43.660601 18.744206 -65.080249 -19.292651 2.621366 0.476004 -22.629048 3.576415 -138.076958 79.418881 44.130910 -4.945366 -49.954538 -30.733011 -27.867352 17.095186 -1.323199 8.921647 5.080872 3.506596 
253.098489 0.000000 588.043330 180.000000 -54.328734 180.000000 0.070788 83.276657 -1.247312 96.803467 -2.738818 -179.884048 172.472249 -20.439700 175.979838 -74.845396 2.638192 2.207310 70.124158 -4.323764 -7.585737 21.454568 0.003106 0.000011 154.969097 8.542995 -164.918442 -54.848515 1.907430 -0.612358 92.801854 -0.458381 -6.368631 21.454553 -0.003095 0.000000 9.816394 -0.080369 -0.430025 9.620413 -0.124666 -0.865222 9.302350 -0.130015 -0.864460 23.014712 -8.038620 -20.504284 -26.505468 25.875863 -33.510181 179.558966 -75.923278 -0.982068 -2.093309 44.625907 20.154764 -61.896375 -19.985091 2.546307 1.699139 -23.814140 1.362954 -139.512976 79.527336 42.668966 -6.609682 -49.746490 -28.817079 -29.619995 17.677248 -1.393648 8.926406 5.971282 2.852349 
